# xmcd
#
# Track frame offsets:
#	150
#	45276
#	57992
#	75851
#	88141
#	100409
#	113738
#	126334
#	139819
#	152676
#	163222
#	176553
#	187481
#	201290
#	211986
#	224130
#	236213
#	249860
#	261805
#	275540
#	290353
#	303594
#	316390
#	330667
#	343472
#
# Disc length: 4779 seconds
#
# Revision: 1
# Processed by: cddbd v1.5.2PL0 Copyright (c) Steve Scherf et al.
# Submitted via: audiograbber 1.83.01
#
DISCID=8812a919
DTITLE=Variés - Les plus grands titres du blues - CD 2
DYEAR=2010
DGENRE=Blues
TTITLE0=I'm a man - Bo Diddley
TTITLE1=Rocket 88 - Jackie Brenston and his delta cats
TTITLE2=V-8 Ford blues - James Cotton
TTITLE3=Bear cat - Rufus Thomas Jr
TTITLE4=Blues is a woman - T-Bone Walker
TTITLE5=Nobody knows you when you're down and out - Bessie Smith
TTITLE6=Blues for my baby - Memphis Slim
TTITLE7=Better cup that out - Sonny Boy Williamson
TTITLE8=Don't fish in my see - Ma Rainey
TTITLE9=Ain't got no home - Clarence Frogman Henry
TTITLE10=Meet me around the corner - Big Joe Williams
TTITLE11=That's allright - Jimmy Rodgers
TTITLE12=Grandpa got drunk - Kokomo Arnold
TTITLE13=Stranger blues - Sonny Terry and Brownie Mcghee
TTITLE14=Trouble blues - Charles Brown
TTITLE15=Five long years - Eddie Boyd
TTITLE16=I'm lonesome baby - Ike Turner
TTITLE17=Have you ever loved a woman - Lightnin' Hopkins
TTITLE18=Blues after hours - Pee Wee Crayton
TTITLE19=Zu zu man - Dr John
TTITLE20=Jailhouse blues - Sleepy John Estes
TTITLE21=Landlord blues - Ivory Joe Hunter
TTITLE22=Bring your love back to me - Eddie Snow
TTITLE23=I've got a woman - Howlin' Wolf
TTITLE24=Harlem nocturne - Johnny Otis
EXTD=
EXTT0=
EXTT1=
EXTT2=
EXTT3=
EXTT4=
EXTT5=
EXTT6=
EXTT7=
EXTT8=
EXTT9=
EXTT10=
EXTT11=
EXTT12=
EXTT13=
EXTT14=
EXTT15=
EXTT16=
EXTT17=
EXTT18=
EXTT19=
EXTT20=
EXTT21=
EXTT22=
EXTT23=
EXTT24=
PLAYORDER=
